<svg width="552" height="552" viewBox="0 0 552 552" fill="none" xmlns="http://www.w3.org/2000/svg">
<rect width="552" height="552" fill="black"/>
<path d="M271.677 453.56C260.397 453.56 251.397 450.68 244.677 444.92C238.197 439.16 234.957 431.84 234.957 422.96C234.957 400.4 255.237 379.64 295.797 360.68C320.037 349.16 350.637 338.72 387.597 329.36C389.517 320.72 391.317 305.96 392.997 285.08C394.917 261.56 395.637 242.72 395.157 228.56C384.357 239.36 372.957 250.16 360.957 260.96C348.957 271.52 336.237 282.08 322.797 292.64C287.277 320.96 261.357 335.12 245.037 335.12C236.877 335.12 232.797 331.16 232.797 323.24C232.797 319.4 234.117 314.24 236.757 307.76C240.117 300.32 246.357 291.32 255.477 280.76C256.917 278.84 260.157 275 265.197 269.24C270.477 263.48 277.677 255.8 286.797 246.2L326.757 204.44C333.957 197 339.117 190.04 342.237 183.56C345.597 177.08 347.277 171.56 347.277 167C347.277 148.52 331.677 139.28 300.477 139.28C295.677 139.28 290.397 139.64 284.637 140.36C292.797 149.96 296.877 161.72 296.877 175.64C296.877 199.64 285.597 224 263.037 248.72C257.277 254.96 252.237 260.72 247.917 266C243.837 271.04 240.477 275.48 237.837 279.32C233.277 286.04 229.677 292.28 227.037 298.04C224.397 303.8 222.837 309.32 222.357 314.6V318.56C222.357 322.88 222.837 326.36 223.797 329C225.717 334.76 228.717 337.64 232.797 337.64C233.997 337.64 235.077 337.28 236.037 336.56L237.477 335.48C238.197 335.48 238.557 335.84 238.557 336.56C238.797 337.28 238.677 337.88 238.197 338.36C236.277 339.56 234.357 340.16 232.437 340.16C227.157 340.16 223.077 336.92 220.197 330.44C219.477 328.52 218.877 326.72 218.397 325.04C217.917 323.12 217.677 321.08 217.677 318.92C217.677 307.4 222.597 294.32 232.437 279.68C235.077 275.84 238.557 271.16 242.877 265.64C247.437 260.12 253.077 253.64 259.797 246.2C280.197 222.92 290.397 200 290.397 177.44C290.397 162.8 285.957 150.56 277.077 140.72C257.637 143.12 239.037 146.96 221.277 152.24C203.517 157.52 186.477 164.24 170.157 172.4C173.277 179.6 178.437 185.48 185.637 190.04C194.277 195.56 205.077 198.32 218.037 198.32C222.837 198.32 227.757 198.08 232.797 197.6C238.077 196.88 243.477 195.8 248.997 194.36C249.717 193.88 250.077 194.24 250.077 195.44C250.077 195.92 249.717 196.4 248.997 196.88C237.957 200.48 226.917 202.28 215.877 202.28C202.677 202.28 191.637 199.52 182.757 194C174.837 188.96 169.077 182.48 165.477 174.56C138.117 189.2 124.437 203.12 124.437 216.32C124.437 225.44 132.357 232.88 148.197 238.64C162.597 244.16 178.797 246.92 196.797 246.92C211.197 246.92 222.717 244.88 231.357 240.8C233.517 239.84 235.317 239.36 236.757 239.36C237.717 239.36 238.197 239.6 238.197 240.08C238.197 241.52 236.637 243.08 233.517 244.76C229.917 246.92 222.837 248.96 212.277 250.88C206.997 251.84 201.597 252.56 196.077 253.04C190.797 253.28 185.397 253.4 179.877 253.4C173.157 253.4 166.317 252.8 159.357 251.6C152.637 250.16 146.037 248 139.557 245.12C123.237 237.92 115.077 227.6 115.077 214.16C115.077 194.96 130.917 177.68 162.597 162.32C161.637 150.8 165.717 140.84 174.837 132.44C186.357 122.36 203.397 117.32 225.957 117.32C247.317 117.32 264.117 122.24 276.357 132.08C279.717 131.84 282.957 131.72 286.077 131.72C289.437 131.48 292.677 131.36 295.797 131.36C334.437 131.36 353.757 143.12 353.757 166.64C353.757 189.68 334.077 219.8 294.717 257C263.277 286.52 247.557 306.32 247.557 316.4C247.557 319.76 249.717 321.44 254.037 321.44C260.277 321.44 268.917 318.56 279.957 312.8C285.957 309.68 292.197 306.08 298.677 302C305.157 297.68 311.757 292.88 318.477 287.6C342.717 268.88 365.997 246.32 388.317 219.92C394.557 212.96 399.237 209.48 402.357 209.48C405.957 209.48 408.477 214.16 409.917 223.52C410.637 228.08 410.997 233.96 410.997 241.16C410.997 248.12 410.637 255.8 409.917 264.2C409.437 272.36 408.597 281.24 407.397 290.84C406.437 298.52 405.357 305.48 404.157 311.72C403.197 317.72 402.237 322.76 401.277 326.84C402.477 326.6 403.677 326.48 404.877 326.48C406.317 326.24 407.757 326.12 409.197 326.12C415.677 326.12 421.077 326.96 425.397 328.64C430.917 330.8 433.677 333.68 433.677 337.28C433.677 340.4 431.277 344.36 426.477 349.16C425.517 349.64 424.917 349.88 424.677 349.88C423.957 349.88 423.597 349.52 423.597 348.8C423.597 348.56 423.837 347.96 424.317 347C427.677 343.64 429.357 340.76 429.357 338.36C429.357 334.28 423.837 332.24 412.797 332.24C410.397 332.24 408.117 332.24 405.957 332.24C403.797 332.48 401.757 332.72 399.837 332.96C390.957 366.32 376.197 393.32 355.557 413.96C344.037 425.72 331.317 434.96 317.397 441.68C301.557 449.6 286.317 453.56 271.677 453.56ZM167.277 160.16C187.197 150.8 207.597 143.96 228.477 139.64C242.877 136.28 255.957 134.12 267.717 133.16C256.437 125 241.677 120.92 223.437 120.92C203.757 120.92 188.997 125.36 179.157 134.24C170.997 140.96 167.037 149.6 167.277 160.16ZM278.877 447.44C298.317 447.44 317.517 438.8 336.477 421.52C359.037 401.12 375.597 372.56 386.157 335.84C367.437 341.12 351.117 346.04 337.197 350.6C323.517 355.4 312.117 359.96 302.997 364.28C266.517 381.32 248.277 400.64 248.277 422.24C248.277 430.16 251.037 436.28 256.557 440.6C262.317 445.16 269.757 447.44 278.877 447.44Z" fill="white"/>
</svg>
