<svg width="202" height="94" viewBox="0 0 202 94" fill="none" xmlns="http://www.w3.org/2000/svg">
<path d="M43.5 93.4001C40.3667 93.4001 37.8667 92.6001 36 91.0001C34.2 89.4001 33.3 87.3667 33.3 84.9C33.3 78.6334 38.9334 72.8667 50.2 67.6C56.9334 64.4 65.4334 61.5 75.7 58.9C76.2334 56.5 76.7334 52.4 77.2 46.6C77.7334 40.0667 77.9334 34.8334 77.8 30.9C74.8 33.9 71.6334 36.9 68.3 39.9C64.9667 42.8334 61.4334 45.7667 57.7 48.7C47.8334 56.5667 40.6334 60.5 36.1 60.5C33.8334 60.5 32.7 59.4 32.7 57.2C32.7 56.1334 33.0667 54.7 33.8 52.9C34.7334 50.8334 36.4667 48.3334 39 45.4C39.4 44.8667 40.3 43.8 41.7 42.2C43.1667 40.6 45.1667 38.4667 47.7 35.8L58.8 24.2C60.8 22.1334 62.2334 20.2 63.1 18.4C64.0334 16.6 64.5 15.0667 64.5 13.8C64.5 8.66671 60.1667 6.10005 51.5 6.10005C50.1667 6.10005 48.7 6.20005 47.1 6.40004C49.3667 9.06671 50.5 12.3334 50.5 16.2C50.5 22.8667 47.3667 29.6334 41.1 36.5C39.5 38.2334 38.1 39.8334 36.9 41.3C35.7667 42.7 34.8334 43.9334 34.1 45C32.8334 46.8667 31.8334 48.6 31.1 50.2C30.3667 51.8 29.9334 53.3334 29.8 54.8V55.9C29.8 57.1 29.9334 58.0667 30.2 58.8C30.7334 60.4 31.5667 61.2 32.7 61.2C33.0334 61.2 33.3334 61.1 33.6 60.9L34 60.6C34.2 60.6 34.3 60.7 34.3 60.9C34.3667 61.1 34.3334 61.2667 34.2 61.4C33.6667 61.7334 33.1334 61.9 32.6 61.9C31.1334 61.9 30 61 29.2 59.2C29 58.6667 28.8334 58.1667 28.7 57.7C28.5667 57.1667 28.5 56.6 28.5 56C28.5 52.8 29.8667 49.1667 32.6 45.1C33.3334 44.0334 34.3 42.7334 35.5 41.2C36.7667 39.6667 38.3334 37.8667 40.2 35.8C45.8667 29.3334 48.7 22.9667 48.7 16.7C48.7 12.6334 47.4667 9.23338 45 6.50005C39.6 7.16671 34.4334 8.23338 29.5 9.70005C24.5667 11.1667 19.8334 13.0334 15.3 15.3C16.1667 17.3 17.6 18.9334 19.6 20.2C22 21.7334 25 22.5 28.6 22.5C29.9334 22.5 31.3 22.4334 32.7 22.3C34.1667 22.1 35.6667 21.8 37.2 21.4C37.4 21.2667 37.5 21.3667 37.5 21.7C37.5 21.8334 37.4 21.9667 37.2 22.1C34.1334 23.1 31.0667 23.6 28 23.6C24.3334 23.6 21.2667 22.8334 18.8 21.3C16.6 19.9 15 18.1 14 15.9C6.40002 19.9667 2.60002 23.8334 2.60002 27.5C2.60002 30.0334 4.80002 32.1 9.20003 33.7C13.2 35.2334 17.7 36 22.7 36C26.7 36 29.9 35.4334 32.3 34.3C32.9 34.0334 33.4 33.9 33.8 33.9C34.0667 33.9 34.2 33.9667 34.2 34.1C34.2 34.5 33.7667 34.9334 32.9 35.4C31.9 36 29.9334 36.5667 27 37.1C25.5334 37.3667 24.0334 37.5667 22.5 37.7C21.0334 37.7667 19.5334 37.8 18 37.8C16.1334 37.8 14.2334 37.6334 12.3 37.3C10.4334 36.9 8.60002 36.3 6.80002 35.5C2.26669 33.5 2.45012e-05 30.6334 2.45012e-05 26.9C2.45012e-05 21.5667 4.40002 16.7667 13.2 12.5C12.9334 9.30005 14.0667 6.53338 16.6 4.20005C19.8 1.40005 24.5334 4.88758e-05 30.8 4.88758e-05C36.7334 4.88758e-05 41.4 1.36671 44.8 4.10004C45.7334 4.03338 46.6334 4.00005 47.5 4.00005C48.4334 3.93338 49.3334 3.90005 50.2 3.90005C60.9334 3.90005 66.3 7.16671 66.3 13.7C66.3 20.1 60.8334 28.4667 49.9 38.8C41.1667 47 36.8 52.5 36.8 55.3C36.8 56.2334 37.4 56.7 38.6 56.7C40.3334 56.7 42.7334 55.9 45.8 54.3C47.4667 53.4334 49.2 52.4334 51 51.3C52.8 50.1 54.6334 48.7667 56.5 47.3C63.2334 42.1 69.7 35.8334 75.9 28.5C77.6334 26.5667 78.9334 25.6 79.8 25.6C80.8 25.6 81.5 26.9 81.9 29.5C82.1 30.7667 82.2 32.4 82.2 34.4C82.2 36.3334 82.1 38.4667 81.9 40.8C81.7667 43.0667 81.5334 45.5334 81.2 48.2C80.9334 50.3334 80.6334 52.2667 80.3 54C80.0334 55.6667 79.7667 57.0667 79.5 58.2C79.8334 58.1334 80.1667 58.1 80.5 58.1C80.9 58.0334 81.3 58 81.7 58C83.5 58 85 58.2334 86.2 58.7C87.7334 59.3 88.5 60.1 88.5 61.1C88.5 61.9667 87.8334 63.0667 86.5 64.4C86.2334 64.5334 86.0667 64.6 86 64.6C85.8 64.6 85.7 64.5 85.7 64.3C85.7 64.2334 85.7667 64.0667 85.9 63.8C86.8334 62.8667 87.3 62.0667 87.3 61.4C87.3 60.2667 85.7667 59.7 82.7 59.7C82.0334 59.7 81.4 59.7 80.8 59.7C80.2 59.7667 79.6334 59.8334 79.1 59.9C76.6334 69.1667 72.5334 76.6667 66.8 82.4001C63.6 85.6667 60.0667 88.2334 56.2 90.1001C51.8 92.3001 47.5667 93.4001 43.5 93.4001ZM14.5 11.9C20.0334 9.30005 25.7 7.40005 31.5 6.20005C35.5 5.26671 39.1334 4.66671 42.4 4.40005C39.2667 2.13338 35.1667 1.00005 30.1 1.00005C24.6334 1.00005 20.5334 2.23338 17.8 4.70005C15.5334 6.56671 14.4334 8.96671 14.5 11.9ZM45.5 91.7001C50.9 91.7001 56.2334 89.3001 61.5 84.5C67.7667 78.8334 72.3667 70.9 75.3 60.7C70.1 62.1667 65.5667 63.5334 61.7 64.8C57.9 66.1334 54.7334 67.4 52.2 68.6C42.0667 73.3334 37 78.7 37 84.7C37 86.9001 37.7667 88.6001 39.3 89.8C40.9 91.0667 42.9667 91.7001 45.5 91.7001ZM106.902 58.8C105.968 58.6667 105.135 58.2 104.402 57.4C103.535 56.4667 103.102 55.1667 103.102 53.5C103.102 52.7667 103.202 52 103.402 51.2C100.402 54.7334 98.0683 56.9334 96.4016 57.8C95.4683 58.2667 94.6016 58.5 93.8016 58.5C91.8683 58.5 90.9016 57.4 90.9016 55.2C90.9016 52.9334 92.0683 49.6667 94.4016 45.4C94.8016 44.6667 95.6683 44.3 97.0016 44.3C97.8016 44.3 98.1016 44.6 97.9016 45.2L95.8016 49C95.1349 50.1334 94.6683 51.1667 94.4016 52.1C94.1349 53.0334 94.0016 53.8334 94.0016 54.5C94.0016 56.1 94.3683 56.9 95.1016 56.9C96.7683 56.9 98.8683 55.2334 101.402 51.9C103.602 48.9 105.268 45.9 106.402 42.9C106.802 42.3 107.602 42 108.802 42C109.468 42 109.802 42.1667 109.802 42.5C109.802 42.6334 109.735 42.7667 109.602 42.9C107.202 47.7 106.002 51.4334 106.002 54.1C106.002 56.1667 106.835 57.2 108.502 57.2C111.102 57.2 114.402 55.0667 118.402 50.8C118.802 50.4 119.135 50.2 119.402 50.2C119.602 50.2 119.702 50.3667 119.702 50.7C119.702 51.0334 119.568 51.3 119.302 51.5C114.435 56.7 110.302 59.1334 106.902 58.8ZM132.155 60.4C129.155 60.4 127.655 58.7667 127.655 55.5C127.655 53.2334 128.621 50.3334 130.555 46.8C129.555 46.9334 128.588 46.6 127.655 45.8C126.788 45 126.355 44.0667 126.355 43C124.621 46.2667 122.021 49.3334 118.555 52.2C118.288 52.4667 117.955 52.6 117.555 52.6C117.288 52.6 117.155 52.5 117.155 52.3C117.155 52.0334 117.355 51.7667 117.755 51.5C120.755 48.7667 123.321 45.4 125.455 41.4L125.255 40.4C125.188 40.0667 125.121 39.7667 125.055 39.5C125.055 39.1667 125.055 38.8667 125.055 38.6C125.055 37 125.488 35.7334 126.355 34.8C127.155 33.9334 128.055 33.5 129.055 33.5C130.321 33.5 130.955 34.1667 130.955 35.5C130.955 37.1667 129.855 39.3 127.655 41.9V42.1C127.655 43.2334 128.321 43.8 129.655 43.8C130.188 43.8 130.821 43.6667 131.555 43.4C132.355 43.2 132.921 43.1 133.255 43.1C134.455 43.1 135.055 43.7334 135.055 45C135.055 45.4667 134.888 45.9667 134.555 46.5C134.088 47.1667 133.488 48.3667 132.755 50.1C131.888 51.9667 131.388 53.3334 131.255 54.2C131.188 54.4667 131.121 54.7334 131.055 55C131.055 55.2667 131.055 55.5334 131.055 55.8C131.055 57.5334 131.855 58.4 133.455 58.4C135.455 58.4 137.988 57.5 141.055 55.7C142.388 54.9667 143.588 54.2 144.655 53.4C145.721 52.6 146.688 51.7667 147.555 50.9C147.955 50.5 148.288 50.3 148.555 50.3C148.755 50.3 148.855 50.4334 148.855 50.7C148.855 51.0334 148.655 51.4 148.255 51.8C143.588 55.8 139.655 58.3667 136.455 59.5C134.788 60.1 133.355 60.4 132.155 60.4ZM148.352 58.9C146.818 58.9 146.052 57.9 146.052 55.9C146.052 54.3 146.652 52.5667 147.852 50.7C150.652 46.5 153.685 43.6667 156.952 42.2C158.352 41.5334 159.718 41.2 161.052 41.2C161.718 41.2 162.452 41.4 163.252 41.8C164.052 42.1334 164.452 42.6334 164.452 43.3C164.452 43.6334 164.218 43.8334 163.752 43.9C163.485 43.9667 163.285 44.0334 163.152 44.1C163.085 44.1667 163.018 44.2334 162.952 44.3C161.418 47.1667 160.652 49.8334 160.652 52.3C160.652 55.4334 161.885 57 164.352 57C166.952 57 170.185 54.9667 174.052 50.9C174.385 50.5 174.652 50.3 174.852 50.3C175.052 50.3 175.152 50.4334 175.152 50.7C175.152 50.9667 175.052 51.2667 174.852 51.6C170.385 56.4 166.485 58.8 163.152 58.8C161.552 58.8 160.252 58.1 159.252 56.7C158.185 55.2334 157.618 53.4667 157.552 51.4C155.885 53.6 154.218 55.4334 152.552 56.9C150.818 58.2334 149.418 58.9 148.352 58.9ZM150.452 55.9C151.185 55.9 152.152 55.4 153.352 54.4C154.418 53.4667 155.318 52.5667 156.052 51.7C156.785 50.7667 157.318 49.8334 157.652 48.9C157.785 47.7667 157.985 46.7667 158.252 45.9C158.585 44.9667 158.918 44.1334 159.252 43.4C155.785 43.3334 152.818 45.7334 150.352 50.6C149.618 51.9334 149.252 53.1334 149.252 54.2C149.252 55.3334 149.652 55.9 150.452 55.9ZM174.719 58.9C173.185 58.9 172.419 57.9 172.419 55.9C172.419 54.3 173.019 52.5667 174.219 50.7C177.019 46.5 180.052 43.6667 183.319 42.2C184.719 41.5334 186.085 41.2 187.419 41.2C188.085 41.2 188.819 41.4 189.619 41.8C190.419 42.1334 190.819 42.6334 190.819 43.3C190.819 43.6334 190.585 43.8334 190.119 43.9C189.852 43.9667 189.652 44.0334 189.519 44.1C189.452 44.1667 189.385 44.2334 189.319 44.3C187.785 47.1667 187.019 49.8334 187.019 52.3C187.019 55.4334 188.252 57 190.719 57C193.319 57 196.552 54.9667 200.419 50.9C200.752 50.5 201.019 50.3 201.219 50.3C201.419 50.3 201.519 50.4334 201.519 50.7C201.519 50.9667 201.419 51.2667 201.219 51.6C196.752 56.4 192.852 58.8 189.519 58.8C187.919 58.8 186.619 58.1 185.619 56.7C184.552 55.2334 183.985 53.4667 183.919 51.4C182.252 53.6 180.585 55.4334 178.919 56.9C177.185 58.2334 175.785 58.9 174.719 58.9ZM176.819 55.9C177.552 55.9 178.519 55.4 179.719 54.4C180.785 53.4667 181.685 52.5667 182.419 51.7C183.152 50.7667 183.685 49.8334 184.019 48.9C184.152 47.7667 184.352 46.7667 184.619 45.9C184.952 44.9667 185.285 44.1334 185.619 43.4C182.152 43.3334 179.185 45.7334 176.719 50.6C175.985 51.9334 175.619 53.1334 175.619 54.2C175.619 55.3334 176.019 55.9 176.819 55.9Z" fill="white"/>
</svg>
